<svg version="1.1" viewBox="0.0 0.0 332.0 332.0" fill="none" stroke="none" stroke-linecap="square" stroke-miterlimit="10" xmlns:xlink="http://www.w3.org/1999/xlink" xmlns="http://www.w3.org/2000/svg"><clipPath id="p.0"><path d="m0 0l332.0 0l0 332.0l-332.0 0l0 -332.0z" clip-rule="nonzero"/></clipPath><g clip-path="url(#p.0)"><path fill="#000000" fill-opacity="0.0" d="m0 0l332.0 0l0 332.0l-332.0 0z" fill-rule="evenodd"/><path fill="#000000" fill-opacity="0.0" d="m196.92787 142.17487l57.354324 -77.22835" fill-rule="evenodd"/><path stroke="#6aa84f" stroke-width="8.0" stroke-linejoin="round" stroke-linecap="butt" d="m196.92787 142.17487l57.354324 -77.22835" fill-rule="evenodd"/><path fill="#000000" fill-opacity="0.0" d="m270.68884 267.04626l-73.76378 -116.47244" fill-rule="evenodd"/><path stroke="#6aa84f" stroke-width="8.0" stroke-linejoin="round" stroke-linecap="butt" d="m270.68884 267.04626l-73.76378 -116.47244" fill-rule="evenodd"/><path fill="#000000" fill-opacity="0.0" d="m188.01944 142.17487l-118.77165 -46.645668" fill-rule="evenodd"/><path stroke="#6aa84f" stroke-width="8.0" stroke-linejoin="round" stroke-linecap="butt" d="m188.01944 142.17487l-118.77165 -46.645668" fill-rule="evenodd"/><path fill="#000000" fill-opacity="0.0" d="m268.84384 271.24435l-144.75589 -39.93701" fill-rule="evenodd"/><path stroke="#6aa84f" stroke-width="8.0" stroke-linejoin="round" stroke-linecap="butt" d="m268.84384 271.24435l-144.75589 -39.93701" fill-rule="evenodd"/><path fill="#000000" fill-opacity="0.0" d="m119.620636 221.18661l-54.803146 -123.93701" fill-rule="evenodd"/><path stroke="#6aa84f" stroke-width="8.0" stroke-linejoin="round" stroke-linecap="butt" d="m119.620636 221.18661l-54.803146 -123.93701" fill-rule="evenodd"/><path fill="#d9ead3" d="m236.71844 60.745598l0 0c0 -11.497963 9.856781 -20.818901 22.015747 -20.818901l0 0c5.838928 0 11.438721 2.1934166 15.567474 6.0977173c4.1287537 3.9043007 6.4482727 9.199669 6.4482727 14.721184l0 0c0 11.497955 -9.856781 20.818893 -22.015747 20.818893l0 0c-12.158966 0 -22.015747 -9.320938 -22.015747 -20.818893z" fill-rule="evenodd"/><path stroke="#6aa84f" stroke-width="8.0" stroke-linejoin="round" stroke-linecap="butt" d="m236.71844 60.745598l0 0c0 -11.497963 9.856781 -20.818901 22.015747 -20.818901l0 0c5.838928 0 11.438721 2.1934166 15.567474 6.0977173c4.1287537 3.9043007 6.4482727 9.199669 6.4482727 14.721184l0 0c0 11.497955 -9.856781 20.818893 -22.015747 20.818893l0 0c-12.158966 0 -22.015747 -9.320938 -22.015747 -20.818893z" fill-rule="evenodd"/><path fill="#d9ead3" d="m252.44067 60.736866l0 0c0 -3.2789192 2.8202515 -5.937008 6.2991943 -5.937008l0 0c1.6706543 0 3.2728882 0.62550735 4.4542236 1.7389107c1.1813354 1.1134033 1.8450012 2.6235046 1.8450012 4.198097l0 0c0 3.2789192 -2.8202515 5.937008 -6.299225 5.937008l0 0c-3.4789429 0 -6.2991943 -2.6580887 -6.2991943 -5.937008z" fill-rule="evenodd"/><path fill="#d9ead3" d="m253.12163 271.2538l0 0c0 -11.497955 9.856796 -20.818893 22.015732 -20.818893l0 0c5.8389587 0 11.438751 2.1934052 15.567505 6.097702c4.1287537 3.9042969 6.448242 9.1996765 6.448242 14.721191l0 0c0 11.497955 -9.856781 20.818909 -22.015747 20.818909l0 0c-12.158936 0 -22.015732 -9.320953 -22.015732 -20.818909z" fill-rule="evenodd"/><path stroke="#6aa84f" stroke-width="8.0" stroke-linejoin="round" stroke-linecap="butt" d="m253.12163 271.2538l0 0c0 -11.497955 9.856796 -20.818893 22.015732 -20.818893l0 0c5.8389587 0 11.438751 2.1934052 15.567505 6.097702c4.1287537 3.9042969 6.448242 9.1996765 6.448242 14.721191l0 0c0 11.497955 -9.856781 20.818909 -22.015747 20.818909l0 0c-12.158936 0 -22.015732 -9.320953 -22.015732 -20.818909z" fill-rule="evenodd"/><path fill="#d9ead3" d="m268.84384 271.24435l0 0c0 -3.2789307 2.8202515 -5.9370117 6.299225 -5.9370117l0 0c1.6706543 0 3.2728882 0.6255188 4.4542236 1.7389221c1.1813354 1.1134033 1.8450012 2.6235046 1.8450012 4.1980896l0 0c0 3.2789307 -2.8202515 5.9370117 -6.299225 5.9370117l0 0c-3.4789734 0 -6.299225 -2.658081 -6.299225 -5.9370117z" fill-rule="evenodd"/><path fill="#d9ead3" d="m170.45221 146.38242l0 0c0 -11.497955 9.856796 -20.818893 22.015747 -20.818893l0 0c5.8389435 0 11.438736 2.1934128 15.56749 6.0977173c4.1287537 3.9042969 6.4482574 9.199661 6.4482574 14.721176l0 0c0 11.497971 -9.856781 20.818909 -22.015747 20.818909l0 0c-12.158951 0 -22.015747 -9.320938 -22.015747 -20.818909z" fill-rule="evenodd"/><path stroke="#6aa84f" stroke-width="8.0" stroke-linejoin="round" stroke-linecap="butt" d="m170.45221 146.38242l0 0c0 -11.497955 9.856796 -20.818893 22.015747 -20.818893l0 0c5.8389435 0 11.438736 2.1934128 15.56749 6.0977173c4.1287537 3.9042969 6.4482574 9.199661 6.4482574 14.721176l0 0c0 11.497971 -9.856781 20.818909 -22.015747 20.818909l0 0c-12.158951 0 -22.015747 -9.320938 -22.015747 -20.818909z" fill-rule="evenodd"/><path fill="#d9ead3" d="m186.17444 146.37297l0 0c0 -3.2789307 2.8202515 -5.9370117 6.2992096 -5.9370117l0 0c1.6706696 0 3.2728882 0.62550354 4.4542236 1.7389069c1.1813354 1.1134033 1.8450012 2.6235046 1.8450012 4.198105l0 0c0 3.2789154 -2.8202515 5.9369965 -6.299225 5.9369965l0 0c-3.4789581 0 -6.2992096 -2.658081 -6.2992096 -5.9369965z" fill-rule="evenodd"/><path fill="#d9ead3" d="m46.43887 103.4084l0 0c-6.4012833 -9.575836 -3.376564 -22.753471 6.755905 -29.433075l0 0c4.8657837 -3.2076569 10.753422 -4.457199 16.367695 -3.4737396c5.6142807 0.9834595 10.495308 4.119362 13.569313 8.717834l0 0c6.4012833 9.575836 3.376564 22.753471 -6.755905 29.433075l0 0c-10.132469 6.6796036 -23.535725 4.3317413 -29.937008 -5.244095z" fill-rule="evenodd"/><path stroke="#6aa84f" stroke-width="8.0" stroke-linejoin="round" stroke-linecap="butt" d="m46.43887 103.4084l0 0c-6.4012833 -9.575836 -3.376564 -22.753471 6.755905 -29.433075l0 0c4.8657837 -3.2076569 10.753422 -4.457199 16.367695 -3.4737396c5.6142807 0.9834595 10.495308 4.119362 13.569313 8.717834l0 0c6.4012833 9.575836 3.376564 22.753471 -6.755905 29.433075l0 0c-10.132469 6.6796036 -23.535725 4.3317413 -29.937008 -5.244095z" fill-rule="evenodd"/><path fill="#d9ead3" d="m58.503014 91.32601l0 0c0 -3.2789154 2.8202515 -5.937004 6.2992096 -5.937004l0 0c1.6706543 0 3.2728882 0.62550354 4.454216 1.7389069c1.1813354 1.1134033 1.8450012 2.6235046 1.8450012 4.198097l0 0c0 3.278923 -2.820259 5.9370117 -6.299217 5.9370117l0 0c-3.4789581 0 -6.2992096 -2.6580887 -6.2992096 -5.9370117z" fill-rule="evenodd"/><path fill="#d9ead3" d="m97.5992 227.13307l0 0c0 -11.497955 9.856781 -20.818893 22.015747 -20.818893l0 0c5.838936 0 11.438736 2.1934204 15.56749 6.0977173c4.1287537 3.9042969 6.4482574 9.199661 6.4482574 14.721176l0 0c0 11.497971 -9.856781 20.818909 -22.015747 20.818909l0 0c-12.158966 0 -22.015747 -9.320938 -22.015747 -20.818909z" fill-rule="evenodd"/><path stroke="#6aa84f" stroke-width="8.0" stroke-linejoin="round" stroke-linecap="butt" d="m97.5992 227.13307l0 0c0 -11.497955 9.856781 -20.818893 22.015747 -20.818893l0 0c5.838936 0 11.438736 2.1934204 15.56749 6.0977173c4.1287537 3.9042969 6.4482574 9.199661 6.4482574 14.721176l0 0c0 11.497971 -9.856781 20.818909 -22.015747 20.818909l0 0c-12.158966 0 -22.015747 -9.320938 -22.015747 -20.818909z" fill-rule="evenodd"/><path fill="#d9ead3" d="m113.32143 227.12363l0 0c0 -3.2789307 2.8202515 -5.9370117 6.2992096 -5.9370117l0 0c1.6706543 0 3.2728882 0.62550354 4.454216 1.7389069c1.1813354 1.1134033 1.8449936 2.6235046 1.8449936 4.198105l0 0c0 3.2789154 -2.8202515 5.9369965 -6.2992096 5.9369965l0 0c-3.4789581 0 -6.2992096 -2.658081 -6.2992096 -5.9369965z" fill-rule="evenodd"/><path fill="#000000" fill-opacity="0.0" d="m5.6483364 34.23622c0 -7.244932 5.8731785 -13.118111 13.118111 -13.118111l133.85368 0c7.244934 0 13.118103 -5.8731785 13.118103 -13.118111l0 0c0 7.244932 5.873184 13.118111 13.118118 13.118111l134.36679 0l0 0c7.244934 0 13.118103 5.8731785 13.118103 13.118111z" fill-rule="evenodd"/><path fill="#000000" fill-opacity="0.0" d="m5.6483364 34.23622c0 -7.244932 5.8731785 -13.118111 13.118111 -13.118111l133.85368 0c7.244934 0 13.118103 -5.8731785 13.118103 -13.118111l0 0c0 7.244932 5.873184 13.118111 13.118118 13.118111l134.36679 0l0 0c7.244934 0 13.118103 5.8731785 13.118103 13.118111" fill-rule="evenodd"/><path stroke="#3d85c6" stroke-width="8.0" stroke-linejoin="round" stroke-linecap="butt" d="m5.6483364 34.23622c0 -7.244932 5.8731785 -13.118111 13.118111 -13.118111l133.85368 0c7.244934 0 13.118103 -5.8731785 13.118103 -13.118111l0 0c0 7.244932 5.873184 13.118111 13.118118 13.118111l134.36679 0l0 0c7.244934 0 13.118103 5.8731785 13.118103 13.118111" fill-rule="evenodd"/><path fill="#000000" fill-opacity="0.0" d="m326.35162 297.7638c0 7.2449036 -5.873169 13.118103 -13.118103 13.118103l-133.85368 0c-7.244919 0 -13.118103 5.873169 -13.118103 13.118103l0 0c0 -7.244934 -5.873184 -13.118103 -13.118103 -13.118103l-134.36679 0l0 0c-7.244931 0 -13.11811 -5.8731995 -13.11811 -13.118103z" fill-rule="evenodd"/><path fill="#000000" fill-opacity="0.0" d="m326.35162 297.7638c0 7.2449036 -5.873169 13.118103 -13.118103 13.118103l-133.85368 0c-7.244919 0 -13.118103 5.873169 -13.118103 13.118103l0 0c0 -7.244934 -5.873184 -13.118103 -13.118103 -13.118103l-134.36679 0l0 0c-7.244931 0 -13.11811 -5.8731995 -13.11811 -13.118103" fill-rule="evenodd"/><path stroke="#3d85c6" stroke-width="8.0" stroke-linejoin="round" stroke-linecap="butt" d="m326.35162 297.7638c0 7.2449036 -5.873169 13.118103 -13.118103 13.118103l-133.85368 0c-7.244919 0 -13.118103 5.873169 -13.118103 13.118103l0 0c0 -7.244934 -5.873184 -13.118103 -13.118103 -13.118103l-134.36679 0l0 0c-7.244931 0 -13.11811 -5.8731995 -13.11811 -13.118103" fill-rule="evenodd"/></g></svg>